<svg xmlns="http://www.w3.org/2000/svg" id="canvas" viewBox="290.978 445.586 1394.734 304.536">
  <path
    d="M 315.19,479.70 C 314.34 481.50, 315.02 483.60, 315.10 488.46 C 315.17 493.32, 315.55 496.62, 315.55 503.99 C 315.55 511.36, 315.54 516.35, 315.09 525.32 C 314.64 534.29, 314.25 539.42, 313.32 548.85 C 312.39 558.28, 311.71 563.39, 310.46 572.48 C 309.21 581.56, 308.45 586.27, 307.05 594.26 C 305.65 602.24, 304.91 606.17, 303.46 612.41 C 302.02 618.65, 300.88 621.51, 299.83 625.45 C 298.79 629.40, 298.50 630.31, 298.23 632.14 C 297.96 633.98, 298.14 633.97, 298.47 634.64 C 298.80 635.32, 299.03 635.67, 299.87 635.52 C 300.72 635.36, 301.59 635.60, 302.70 633.87 C 303.80 632.14, 304.40 630.99, 305.39 626.86 C 306.39 622.73, 306.64 619.64, 307.68 613.24 C 308.72 606.83, 309.39 602.90, 310.61 594.84 C 311.83 586.78, 312.55 582.05, 313.77 572.93 C 315.00 563.80, 315.69 558.68, 316.74 549.20 C 317.78 539.73, 318.31 534.59, 319.01 525.57 C 319.70 516.54, 319.94 511.53, 320.23 504.08 C 320.52 496.63, 320.63 493.25, 320.45 488.32 C 320.28 483.39, 320.40 481.18, 319.34 479.46 C 318.29 477.73, 316.03 477.90, 315.19 479.70"
    style="stroke: black; fill: black;" />
  <path
    d="M 298.68,498.65 C 300.19 498.58, 300.80 497.81, 302.29 496.55 C 303.79 495.29, 304.13 494.30, 306.18 492.36 C 308.22 490.42, 309.24 488.72, 312.52 486.86 C 315.81 484.99, 318.09 484.10, 322.62 483.03 C 327.14 481.97, 330.11 481.63, 335.15 481.53 C 340.20 481.43, 343.16 481.61, 347.85 482.52 C 352.55 483.43, 355.10 484.27, 358.62 486.08 C 362.13 487.89, 363.64 489.19, 365.42 491.57 C 367.21 493.95, 367.66 494.98, 367.55 497.98 C 367.44 500.97, 367.02 502.78, 364.87 506.56 C 362.72 510.34, 360.74 512.80, 356.81 516.87 C 352.87 520.95, 349.86 523.34, 345.20 526.95 C 340.53 530.56, 337.34 532.16, 333.49 534.92 C 329.63 537.69, 327.32 538.31, 325.92 540.77 C 324.52 543.23, 324.88 545.32, 326.47 547.20 C 328.07 549.08, 329.85 549.57, 333.88 550.16 C 337.92 550.75, 340.87 549.93, 346.65 550.14 C 352.44 550.34, 356.26 550.30, 362.80 551.20 C 369.34 552.10, 373.26 552.74, 379.36 554.63 C 385.47 556.53, 388.73 557.83, 393.32 560.68 C 397.91 563.53, 399.90 565.34, 402.33 568.88 C 404.75 572.41, 405.38 574.13, 405.46 578.35 C 405.55 582.58, 405.09 584.93, 402.75 590.00 C 400.42 595.07, 398.46 598.11, 393.81 603.71 C 389.15 609.31, 385.88 612.47, 379.47 618.00 C 373.06 623.52, 369.01 626.51, 361.76 631.33 C 354.51 636.16, 350.26 638.57, 343.24 642.12 C 336.21 645.67, 332.43 647.18, 326.63 649.08 C 320.82 650.98, 317.88 651.31, 314.21 651.63 C 310.53 651.94, 309.49 651.40, 308.26 650.66 C 307.03 649.92, 307.61 649.79, 308.07 647.93 C 308.52 646.07, 308.57 644.62, 310.52 641.36 C 312.47 638.09, 313.96 635.73, 317.81 631.62 C 321.66 627.51, 324.30 625.11, 329.78 620.82 C 335.25 616.52, 338.56 614.41, 345.18 610.15 C 351.80 605.88, 355.56 603.72, 362.88 599.48 C 370.21 595.23, 374.18 593.16, 381.81 588.90 C 389.43 584.64, 393.44 582.53, 401.01 578.18 C 408.58 573.82, 412.44 571.65, 419.67 567.12 C 426.90 562.59, 430.58 560.27, 437.17 555.53 C 443.76 550.78, 446.97 548.32, 452.61 543.38 C 458.26 538.43, 460.90 535.76, 465.41 530.79 C 469.92 525.82, 471.91 523.20, 475.16 518.54 C 478.42 513.88, 479.75 511.58, 481.67 507.48 C 483.59 503.38, 484.77 501.40, 484.77 498.05 C 484.77 494.70, 483.78 492.78, 481.67 490.74 C 479.56 488.70, 477.40 487.43, 474.24 487.84 C 471.07 488.25, 469.16 489.60, 465.85 492.79 C 462.54 495.99, 461.02 498.47, 457.68 503.83 C 454.35 509.18, 452.48 512.54, 449.19 519.58 C 445.91 526.62, 444.05 530.90, 441.24 539.01 C 438.43 547.13, 437.06 551.79, 435.15 560.16 C 433.23 568.53, 432.40 573.02, 431.69 580.86 C 430.97 588.69, 430.91 592.59, 431.57 599.34 C 432.24 606.09, 432.97 609.31, 435.02 614.63 C 437.08 619.95, 438.46 622.34, 441.87 625.93 C 445.27 629.51, 447.54 630.94, 452.05 632.54 C 456.56 634.13, 459.32 634.33, 464.41 633.89 C 469.50 633.46, 472.26 632.58, 477.49 630.37 C 482.72 628.16, 485.47 626.43, 490.56 622.86 C 495.65 619.29, 498.29 616.93, 502.92 612.54 C 507.56 608.14, 509.88 605.39, 513.73 600.88 C 517.58 596.37, 519.46 593.86, 522.16 589.99 C 524.85 586.12, 526.59 584.47, 527.22 581.52 C 527.84 578.57, 526.95 576.80, 525.30 575.23 C 523.65 573.66, 521.60 572.99, 518.98 573.69 C 516.37 574.39, 514.53 575.76, 512.23 578.73 C 509.94 581.69, 509.07 584.29, 507.52 588.53 C 505.96 592.77, 505.17 595.43, 504.47 599.95 C 503.77 604.47, 503.46 606.93, 504.00 611.14 C 504.53 615.35, 505.12 617.64, 507.15 621.00 C 509.18 624.35, 510.86 625.91, 514.13 627.92 C 517.39 629.93, 519.60 630.57, 523.47 631.05 C 527.35 631.53, 529.60 631.32, 533.48 630.31 C 537.37 629.31, 539.50 628.36, 542.89 626.01 C 546.29 623.67, 548.05 622.05, 550.45 618.57 C 552.84 615.09, 553.80 612.83, 554.86 608.60 C 555.91 604.38, 556.09 601.85, 555.72 597.44 C 555.34 593.04, 554.67 590.55, 552.98 586.57 C 551.28 582.58, 549.85 580.62, 547.26 577.53 C 544.67 574.43, 543.00 572.92, 540.03 571.09 C 537.05 569.27, 535.04 568.44, 532.37 568.42 C 529.70 568.40, 527.99 569.31, 526.67 570.99 C 525.35 572.67, 524.92 574.65, 525.78 576.82 C 526.64 578.99, 527.90 580.84, 530.98 581.83 C 534.06 582.82, 536.48 581.95, 541.18 581.77 C 545.89 581.59, 548.76 581.40, 554.51 580.92 C 560.27 580.45, 563.67 580.13, 569.96 579.41 C 576.24 578.69, 579.77 578.14, 585.94 577.30 C 592.12 576.47, 595.48 575.89, 600.85 575.25 C 606.21 574.60, 609.03 574.62, 612.75 574.08 C 616.46 573.55, 618.04 573.46, 619.42 572.55 C 620.81 571.64, 620.74 570.35, 619.68 569.52 C 618.63 568.69, 616.85 567.61, 614.13 568.41 C 611.41 569.21, 609.57 571.07, 606.08 573.54 C 602.59 576.01, 600.24 577.81, 596.70 580.77 C 593.16 583.74, 590.77 585.18, 588.40 588.37 C 586.02 591.55, 584.85 593.57, 584.83 596.69 C 584.80 599.80, 585.86 602.03, 588.27 603.93 C 590.67 605.84, 592.92 606.35, 596.85 606.21 C 600.77 606.06, 603.22 604.86, 607.89 603.22 C 612.56 601.57, 615.30 600.23, 620.18 597.96 C 625.06 595.70, 627.80 594.15, 632.29 591.90 C 636.77 589.65, 639.33 588.59, 642.59 586.70 C 645.85 584.82, 647.44 583.94, 648.59 582.48 C 649.74 581.02, 649.21 579.63, 648.33 579.40 C 647.45 579.17, 645.45 579.15, 644.19 581.33 C 642.92 583.51, 642.93 585.75, 642.00 590.29 C 641.06 594.83, 640.53 597.90, 639.51 604.04 C 638.50 610.18, 637.87 613.81, 636.92 620.99 C 635.97 628.17, 635.60 632.21, 634.77 639.94 C 633.94 647.68, 633.66 651.84, 632.78 659.66 C 631.90 667.48, 631.53 671.59, 630.38 679.06 C 629.23 686.52, 628.71 690.29, 627.05 696.99 C 625.39 703.69, 624.43 706.96, 622.08 712.56 C 619.73 718.16, 618.29 720.76, 615.30 724.99 C 612.32 729.22, 610.60 730.97, 607.17 733.71 C 603.74 736.45, 601.75 737.39, 598.15 738.70 C 594.56 740.00, 592.61 740.26, 589.20 740.22 C 585.78 740.18, 584.03 739.72, 581.07 738.50 C 578.10 737.29, 576.61 736.34, 574.37 734.14 C 572.14 731.94, 571.14 730.66, 569.90 727.51 C 568.66 724.36, 568.07 722.50, 568.17 718.39 C 568.26 714.28, 568.54 711.89, 570.36 706.96 C 572.17 702.03, 573.52 699.15, 577.25 693.74 C 580.98 688.32, 583.49 685.36, 588.99 679.88 C 594.49 674.40, 597.99 671.60, 604.77 666.35 C 611.56 661.11, 615.50 658.43, 622.90 653.65 C 630.30 648.86, 634.43 646.59, 641.77 642.44 C 649.11 638.30, 652.86 636.35, 659.60 632.93 C 666.34 629.51, 669.61 627.98, 675.47 625.34 C 681.32 622.71, 684.07 621.62, 688.89 619.75 C 693.71 617.88, 695.88 617.29, 699.57 616.01 C 703.26 614.73, 705.04 614.59, 707.33 613.36 C 709.62 612.13, 710.51 611.12, 711.04 609.85 C 711.56 608.58, 711.20 607.62, 709.96 607.01 C 708.73 606.41, 707.43 606.24, 704.87 606.83 C 702.31 607.43, 700.76 608.35, 697.16 610.00 C 693.55 611.65, 691.56 612.80, 686.86 615.10 C 682.15 617.39, 679.44 618.59, 673.64 621.49 C 667.84 624.39, 664.58 626.00, 657.86 629.57 C 651.13 633.15, 647.38 635.14, 640.01 639.36 C 632.64 643.58, 628.49 645.87, 621.00 650.69 C 613.50 655.50, 609.50 658.17, 602.54 663.42 C 595.57 668.68, 591.97 671.44, 586.15 676.96 C 580.33 682.47, 577.62 685.41, 573.45 691.01 C 569.27 696.60, 567.59 699.51, 565.27 704.92 C 562.94 710.33, 562.23 713.05, 561.83 718.05 C 561.43 723.05, 561.80 725.67, 563.26 729.93 C 564.73 734.19, 566.11 736.29, 569.14 739.36 C 572.16 742.43, 574.36 743.74, 578.39 745.29 C 582.42 746.84, 584.88 747.25, 589.30 747.09 C 593.71 746.94, 596.16 746.34, 600.46 744.52 C 604.75 742.70, 606.99 741.34, 610.78 737.99 C 614.57 734.64, 616.34 732.53, 619.43 727.78 C 622.52 723.03, 623.90 720.20, 626.23 714.23 C 628.55 708.27, 629.45 704.87, 631.05 697.95 C 632.66 691.03, 633.14 687.21, 634.26 679.64 C 635.38 672.07, 635.74 667.95, 636.66 660.11 C 637.58 652.26, 637.88 648.10, 638.86 640.42 C 639.83 632.74, 640.25 628.74, 641.52 621.71 C 642.79 614.69, 643.60 611.14, 645.21 605.29 C 646.83 599.44, 648.01 596.72, 649.59 592.46 C 651.17 588.20, 652.88 586.84, 653.11 583.98 C 653.33 581.13, 652.26 579.68, 650.74 578.18 C 649.21 576.68, 647.89 576.09, 645.48 576.47 C 643.08 576.85, 641.96 578.14, 638.71 580.07 C 635.46 581.99, 633.46 583.72, 629.21 586.08 C 624.97 588.44, 622.20 589.89, 617.49 591.85 C 612.77 593.81, 609.92 594.76, 605.63 595.87 C 601.33 596.98, 598.89 596.91, 596.02 597.41 C 593.15 597.90, 592.21 598.23, 591.28 598.34 C 590.36 598.45, 590.66 598.82, 591.40 597.95 C 592.13 597.07, 592.86 596.06, 594.98 593.96 C 597.10 591.86, 598.73 589.88, 602.00 587.44 C 605.26 585.00, 607.80 583.74, 611.30 581.77 C 614.81 579.80, 617.38 579.67, 619.54 577.60 C 621.70 575.53, 622.15 573.55, 622.11 571.43 C 622.07 569.30, 621.43 567.84, 619.35 566.97 C 617.28 566.10, 615.62 566.54, 611.74 567.09 C 607.87 567.64, 605.28 568.69, 599.98 569.72 C 594.68 570.74, 591.34 571.33, 585.24 572.21 C 579.13 573.08, 575.62 573.60, 569.44 574.09 C 563.25 574.59, 559.86 574.81, 554.32 574.69 C 548.77 574.57, 545.89 574.25, 541.71 573.49 C 537.53 572.74, 535.94 571.19, 533.42 570.92 C 530.90 570.66, 530.12 571.35, 529.10 572.18 C 528.09 573.01, 528.08 574.02, 528.35 575.05 C 528.61 576.08, 529.05 576.45, 530.42 577.32 C 531.79 578.18, 533.05 578.22, 535.20 579.38 C 537.34 580.54, 539.01 581.06, 541.14 583.12 C 543.27 585.19, 544.46 586.72, 545.85 589.71 C 547.23 592.71, 547.78 594.71, 548.08 598.11 C 548.38 601.50, 548.19 603.52, 547.35 606.69 C 546.52 609.86, 545.73 611.48, 543.91 613.96 C 542.10 616.44, 540.77 617.50, 538.27 619.09 C 535.76 620.69, 534.14 621.27, 531.38 621.93 C 528.63 622.58, 527.08 622.63, 524.49 622.36 C 521.89 622.09, 520.52 621.69, 518.43 620.56 C 516.33 619.44, 515.35 618.81, 514.01 616.74 C 512.66 614.67, 512.06 613.26, 511.71 610.20 C 511.36 607.13, 511.43 605.02, 512.25 601.41 C 513.08 597.80, 514.09 595.46, 515.82 592.14 C 517.55 588.81, 519.38 587.30, 520.91 584.80 C 522.45 582.30, 523.12 581.19, 523.49 579.63 C 523.86 578.06, 523.42 577.13, 522.75 576.98 C 522.08 576.83, 521.32 576.96, 520.13 578.88 C 518.94 580.81, 518.92 582.89, 516.81 586.60 C 514.70 590.32, 513.06 593.03, 509.58 597.48 C 506.09 601.93, 503.80 604.63, 499.40 608.84 C 495.00 613.05, 492.38 615.27, 487.57 618.53 C 482.76 621.79, 480.07 623.26, 475.34 625.14 C 470.61 627.03, 468.19 627.58, 463.91 627.94 C 459.63 628.30, 457.58 628.10, 453.95 626.94 C 450.32 625.77, 448.65 624.93, 445.74 622.11 C 442.84 619.29, 441.44 617.47, 439.44 612.83 C 437.43 608.18, 436.51 605.21, 435.72 598.88 C 434.93 592.55, 434.87 588.76, 435.48 581.18 C 436.08 573.61, 436.87 569.16, 438.76 560.99 C 440.65 552.82, 442.03 548.21, 444.93 540.33 C 447.83 532.45, 449.75 528.24, 453.25 521.59 C 456.76 514.95, 458.88 511.73, 462.43 507.10 C 465.98 502.46, 468.25 500.77, 471.00 498.40 C 473.75 496.02, 474.90 495.99, 476.19 495.23 C 477.47 494.47, 477.24 494.10, 477.41 494.58 C 477.58 495.06, 477.32 495.52, 477.02 497.63 C 476.73 499.75, 477.16 501.53, 475.95 505.17 C 474.74 508.80, 473.74 511.26, 470.99 515.82 C 468.23 520.38, 466.38 523.03, 462.19 527.96 C 458.00 532.90, 455.47 535.57, 450.04 540.50 C 444.62 545.42, 441.49 547.87, 435.05 552.61 C 428.60 557.35, 424.97 559.66, 417.82 564.18 C 410.67 568.70, 406.84 570.87, 399.30 575.21 C 391.76 579.54, 387.76 581.63, 380.11 585.85 C 372.46 590.06, 368.48 592.11, 361.06 596.29 C 353.65 600.46, 349.86 602.57, 343.04 606.72 C 336.22 610.87, 332.83 612.89, 326.96 617.04 C 321.10 621.19, 318.21 623.36, 313.72 627.47 C 309.23 631.59, 307.12 633.61, 304.53 637.61 C 301.94 641.61, 300.65 643.88, 300.75 647.46 C 300.86 651.05, 302.25 653.60, 305.04 655.52 C 307.83 657.45, 310.11 657.54, 314.72 657.08 C 319.33 656.62, 322.04 655.53, 328.10 653.22 C 334.15 650.90, 337.84 649.27, 344.98 645.51 C 352.12 641.74, 356.40 639.30, 363.79 634.39 C 371.19 629.48, 375.31 626.52, 381.98 620.95 C 388.64 615.37, 392.07 612.30, 397.11 606.52 C 402.14 600.75, 404.45 597.72, 407.16 592.07 C 409.87 586.41, 410.77 583.47, 410.66 578.25 C 410.54 573.02, 409.55 570.32, 406.60 565.96 C 403.65 561.61, 401.08 559.67, 395.92 556.48 C 390.77 553.29, 387.29 552.11, 380.84 550.01 C 374.39 547.90, 370.40 547.25, 363.66 545.96 C 356.93 544.68, 353.01 544.28, 347.16 543.59 C 341.32 542.89, 338.19 542.47, 334.44 542.48 C 330.70 542.50, 329.29 543.16, 328.43 543.68 C 327.57 544.20, 328.37 545.75, 330.16 545.07 C 331.94 544.39, 333.63 542.99, 337.35 540.27 C 341.08 537.54, 344.07 535.33, 348.79 531.46 C 353.51 527.59, 356.67 525.28, 360.96 520.91 C 365.24 516.55, 367.60 514.19, 370.23 509.64 C 372.87 505.09, 374.01 502.57, 374.13 498.17 C 374.24 493.78, 373.31 491.21, 370.79 487.67 C 368.26 484.12, 365.86 482.66, 361.50 480.45 C 357.14 478.23, 354.27 477.59, 348.99 476.59 C 343.71 475.58, 340.64 475.45, 335.11 475.42 C 329.58 475.40, 326.53 475.64, 321.34 476.47 C 316.15 477.29, 313.50 477.90, 309.15 479.57 C 304.81 481.23, 302.54 482.43, 299.62 484.79 C 296.70 487.15, 295.53 488.95, 294.56 491.37 C 293.59 493.80, 293.95 495.46, 294.78 496.91 C 295.60 498.37, 297.18 498.72, 298.68 498.65"
    style="stroke: black; fill: black;" />
  <path
    d="M 756.77,573.27 C 757.95 574.48, 759.31 575.01, 762.40 575.17 C 765.50 575.32, 767.69 574.58, 772.25 574.07 C 776.80 573.56, 779.82 573.15, 785.18 572.60 C 790.54 572.06, 793.59 571.80, 799.05 571.34 C 804.51 570.88, 807.43 570.70, 812.48 570.29 C 817.53 569.88, 820.05 569.84, 824.31 569.29 C 828.57 568.74, 831.98 568.76, 833.79 567.55 C 835.61 566.34, 835.39 564.09, 833.38 563.24 C 831.38 562.40, 828.04 563.08, 823.76 563.31 C 819.48 563.53, 817.02 563.95, 811.99 564.38 C 806.96 564.81, 804.07 565.12, 798.62 565.45 C 793.17 565.78, 790.10 565.85, 784.73 566.04 C 779.35 566.23, 776.31 566.32, 771.74 566.42 C 767.16 566.51, 764.91 565.98, 761.86 566.53 C 758.81 567.07, 757.52 567.79, 756.50 569.14 C 755.48 570.49, 755.59 572.07, 756.77 573.27"
    style="stroke: black; fill: black;" />
  <path
    d="M 927.74,449.47 C 926.61 450.70, 926.45 452.06, 926.09 455.83 C 925.73 459.59, 926.07 462.14, 925.93 468.29 C 925.80 474.45, 925.75 478.62, 925.43 486.62 C 925.11 494.63, 924.83 499.42, 924.32 508.32 C 923.81 517.21, 923.46 522.12, 922.88 531.09 C 922.30 540.06, 921.91 544.74, 921.42 553.16 C 920.93 561.57, 920.70 565.79, 920.41 573.16 C 920.13 580.53, 920.13 584.11, 920.00 590.01 C 919.87 595.91, 919.66 598.54, 919.76 602.67 C 919.86 606.80, 919.91 608.33, 920.49 610.64 C 921.08 612.96, 921.76 613.58, 922.69 614.24 C 923.62 614.91, 924.38 614.79, 925.13 613.95 C 925.87 613.12, 926.30 612.38, 926.43 610.06 C 926.56 607.73, 926.13 606.35, 925.77 602.33 C 925.41 598.31, 924.91 595.76, 924.62 589.95 C 924.33 584.13, 924.24 580.58, 924.31 573.26 C 924.37 565.94, 924.55 561.73, 924.96 553.35 C 925.37 544.96, 925.74 540.28, 926.37 531.32 C 926.99 522.37, 927.37 517.46, 928.08 508.57 C 928.78 499.69, 929.21 494.90, 929.90 486.91 C 930.59 478.92, 930.95 474.76, 931.53 468.62 C 932.11 462.47, 932.75 459.98, 932.79 456.18 C 932.83 452.39, 932.74 450.99, 931.73 449.65 C 930.72 448.30, 928.86 448.23, 927.74 449.47"
    style="stroke: black; fill: black;" />
  <path
    d="M 889.87,562.76 C 890.78 564.08, 891.79 565.01, 894.48 565.39 C 897.16 565.77, 898.95 565.07, 903.30 564.66 C 907.64 564.26, 910.50 563.97, 916.21 563.37 C 921.92 562.77, 925.34 562.56, 931.87 561.69 C 938.40 560.81, 942.05 560.23, 948.85 558.99 C 955.66 557.75, 959.30 557.03, 965.88 555.49 C 972.47 553.96, 975.88 553.16, 981.78 551.31 C 987.67 549.46, 990.56 548.36, 995.36 546.25 C 1000.16 544.14, 1002.42 543.18, 1005.78 540.76 C 1009.15 538.33, 1010.88 537.08, 1012.17 534.13 C 1013.47 531.18, 1013.40 528.87, 1012.25 526.00 C 1011.10 523.14, 1009.54 521.09, 1006.41 519.81 C 1003.28 518.53, 1000.74 518.59, 996.60 519.60 C 992.45 520.60, 989.94 521.87, 985.67 524.83 C 981.40 527.78, 979.00 529.96, 975.25 534.36 C 971.49 538.76, 969.50 541.57, 966.88 546.84 C 964.25 552.11, 963.08 555.24, 962.13 560.73 C 961.18 566.21, 961.14 569.25, 962.11 574.27 C 963.08 579.29, 964.21 581.90, 966.98 585.83 C 969.76 589.77, 971.87 591.52, 975.98 593.96 C 980.09 596.40, 982.71 597.24, 987.55 598.05 C 992.40 598.87, 995.13 598.81, 1000.20 598.02 C 1005.27 597.23, 1007.96 596.33, 1012.89 594.10 C 1017.81 591.88, 1020.31 590.32, 1024.82 586.90 C 1029.33 583.48, 1031.51 581.24, 1035.44 577.03 C 1039.37 572.81, 1041.21 570.11, 1044.46 565.81 C 1047.71 561.51, 1049.46 559.03, 1051.69 555.53 C 1053.92 552.02, 1055.20 550.25, 1055.62 548.29 C 1056.04 546.33, 1054.85 545.48, 1053.77 545.73 C 1052.70 545.98, 1051.07 547.05, 1050.23 549.55 C 1049.39 552.06, 1049.72 554.34, 1049.56 558.26 C 1049.41 562.19, 1049.45 565.02, 1049.47 569.19 C 1049.49 573.37, 1049.19 575.53, 1049.67 579.14 C 1050.14 582.74, 1050.30 584.59, 1051.84 587.21 C 1053.38 589.82, 1054.72 591.02, 1057.37 592.21 C 1060.03 593.40, 1062.04 593.88, 1065.11 593.14 C 1068.19 592.40, 1069.68 591.08, 1072.74 588.53 C 1075.79 585.97, 1077.13 583.95, 1080.39 580.38 C 1083.65 576.81, 1085.56 574.46, 1089.02 570.68 C 1092.49 566.90, 1094.49 564.53, 1097.71 561.48 C 1100.92 558.44, 1102.95 557.22, 1105.09 555.43 C 1107.23 553.64, 1107.75 552.89, 1108.40 552.53 C 1109.04 552.17, 1108.52 552.39, 1108.30 553.64 C 1108.08 554.88, 1107.40 556.19, 1107.28 558.76 C 1107.17 561.32, 1107.49 563.25, 1107.75 566.47 C 1108.01 569.68, 1107.78 571.72, 1108.58 574.82 C 1109.38 577.92, 1110.01 579.61, 1111.76 581.96 C 1113.52 584.31, 1114.74 585.41, 1117.35 586.56 C 1119.95 587.72, 1121.75 588.21, 1124.78 587.73 C 1127.82 587.26, 1129.42 586.22, 1132.54 584.18 C 1135.66 582.14, 1137.09 580.34, 1140.37 577.54 C 1143.65 574.74, 1145.54 572.91, 1148.92 570.17 C 1152.30 567.43, 1154.49 565.75, 1157.25 563.84 C 1160.01 561.93, 1161.31 561.29, 1162.73 560.61 C 1164.15 559.93, 1164.06 559.70, 1164.35 560.44 C 1164.63 561.17, 1164.02 562.08, 1164.16 564.29 C 1164.31 566.50, 1164.60 568.30, 1165.08 571.49 C 1165.56 574.68, 1165.79 576.77, 1166.56 580.23 C 1167.33 583.69, 1167.49 585.70, 1168.94 588.79 C 1170.38 591.88, 1171.43 593.47, 1173.80 595.68 C 1176.18 597.89, 1177.69 598.88, 1180.81 599.84 C 1183.93 600.80, 1185.96 601.23, 1189.39 600.50 C 1192.82 599.76, 1194.60 598.53, 1197.95 596.16 C 1201.31 593.79, 1202.93 592.13, 1206.17 588.66 C 1209.40 585.19, 1211.05 583.00, 1214.14 578.80 C 1217.23 574.61, 1218.81 572.01, 1221.63 567.69 C 1224.45 563.38, 1225.99 560.84, 1228.25 557.21 C 1230.52 553.58, 1232.26 551.82, 1232.96 549.55 C 1233.66 547.27, 1232.50 545.85, 1231.77 545.85 C 1231.04 545.85, 1229.74 546.59, 1229.31 549.55 C 1228.87 552.50, 1229.71 554.93, 1229.60 560.63 C 1229.49 566.32, 1229.27 570.28, 1228.76 578.02 C 1228.26 585.75, 1227.90 590.43, 1227.08 599.31 C 1226.25 608.18, 1225.65 613.10, 1224.64 622.38 C 1223.64 631.66, 1223.15 636.77, 1222.07 645.73 C 1220.98 654.69, 1220.36 659.48, 1219.22 667.17 C 1218.08 674.86, 1217.52 678.54, 1216.37 684.19 C 1215.22 689.84, 1213.95 692.28, 1213.47 695.42 C 1212.99 698.56, 1213.41 699.54, 1213.95 699.90 C 1214.50 700.26, 1216.12 699.71, 1216.21 697.21 C 1216.30 694.70, 1214.88 692.73, 1214.40 687.39 C 1213.92 682.04, 1213.55 678.05, 1213.79 670.50 C 1214.04 662.95, 1214.26 658.23, 1215.62 649.62 C 1216.97 641.01, 1218.00 636.19, 1220.57 627.43 C 1223.14 618.66, 1224.86 613.97, 1228.48 605.79 C 1232.09 597.60, 1234.26 593.55, 1238.66 586.51 C 1243.05 579.48, 1245.57 576.07, 1250.44 570.61 C 1255.31 565.14, 1258.00 562.69, 1263.00 559.19 C 1268.00 555.69, 1270.85 554.54, 1275.44 553.11 C 1280.03 551.69, 1282.41 551.67, 1285.97 552.07 C 1289.52 552.47, 1291.00 553.40, 1293.23 555.13 C 1295.47 556.86, 1296.23 557.97, 1297.13 560.70 C 1298.02 563.42, 1298.28 565.11, 1297.73 568.75 C 1297.17 572.39, 1296.47 574.76, 1294.36 578.89 C 1292.24 583.03, 1290.56 585.46, 1287.14 589.42 C 1283.73 593.38, 1281.39 595.50, 1277.27 598.69 C 1273.14 601.88, 1270.55 603.39, 1266.52 605.37 C 1262.49 607.35, 1260.04 607.70, 1257.11 608.60 C 1254.18 609.49, 1253.07 609.44, 1251.88 609.85 C 1250.70 610.26, 1250.72 610.58, 1251.18 610.65 C 1251.63 610.72, 1252.48 611.34, 1254.16 610.20 C 1255.84 609.06, 1256.52 607.55, 1259.57 604.96 C 1262.63 602.37, 1264.73 600.61, 1269.43 597.25 C 1274.14 593.89, 1277.13 592.09, 1283.11 588.16 C 1289.08 584.23, 1292.56 582.16, 1299.32 577.60 C 1306.07 573.04, 1309.84 570.60, 1316.89 565.36 C 1323.93 560.12, 1327.68 557.27, 1334.55 551.42 C 1341.42 545.56, 1344.97 542.39, 1351.22 536.09 C 1357.48 529.79, 1360.57 526.36, 1365.81 519.93 C 1371.05 513.51, 1373.52 510.09, 1377.42 503.95 C 1381.32 497.81, 1383.03 494.72, 1385.31 489.22 C 1387.58 483.71, 1388.36 481.07, 1388.79 476.44 C 1389.22 471.80, 1389.25 469.33, 1387.46 466.04 C 1385.66 462.76, 1383.45 460.82, 1379.82 460.01 C 1376.19 459.19, 1373.59 459.88, 1369.30 461.97 C 1365.01 464.05, 1362.74 465.94, 1358.36 470.44 C 1353.98 474.95, 1351.56 478.06, 1347.40 484.49 C 1343.24 490.92, 1340.97 494.94, 1337.54 502.60 C 1334.11 510.25, 1332.44 514.73, 1330.25 522.77 C 1328.06 530.81, 1327.24 535.15, 1326.59 542.78 C 1325.94 550.41, 1326.04 554.23, 1327.00 560.91 C 1327.96 567.59, 1328.94 570.79, 1331.41 576.18 C 1333.88 581.57, 1335.61 584.03, 1339.34 587.86 C 1343.07 591.70, 1345.41 593.23, 1350.08 595.36 C 1354.74 597.48, 1357.50 598.05, 1362.68 598.48 C 1367.86 598.91, 1370.72 598.58, 1375.97 597.49 C 1381.23 596.41, 1383.95 595.35, 1388.97 593.07 C 1394.00 590.79, 1396.51 589.21, 1401.10 586.09 C 1405.68 582.97, 1407.96 580.95, 1411.90 577.47 C 1415.85 574.00, 1417.72 572.02, 1420.81 568.72 C 1423.90 565.42, 1425.86 564.07, 1427.33 560.97 C 1428.80 557.88, 1429.05 555.70, 1428.16 553.26 C 1427.26 550.82, 1425.54 549.19, 1422.85 548.77 C 1420.16 548.34, 1418.00 548.99, 1414.70 551.14 C 1411.40 553.28, 1409.71 555.62, 1406.34 559.50 C 1402.97 563.38, 1400.98 566.06, 1397.85 570.54 C 1394.72 575.02, 1393.00 577.61, 1390.69 581.88 C 1388.39 586.15, 1387.07 588.21, 1386.32 591.89 C 1385.58 595.57, 1385.79 597.53, 1386.96 600.29 C 1388.12 603.04, 1389.50 604.28, 1392.15 605.65 C 1394.80 607.01, 1396.90 607.71, 1400.22 607.10 C 1403.53 606.49, 1405.38 605.06, 1408.73 602.59 C 1412.07 600.12, 1413.68 598.31, 1416.97 594.75 C 1420.25 591.19, 1422.00 588.93, 1425.15 584.79 C 1428.29 580.66, 1430.12 577.85, 1432.69 574.07 C 1435.26 570.30, 1437.20 568.42, 1437.99 565.91 C 1438.78 563.39, 1437.67 561.93, 1436.63 561.50 C 1435.59 561.07, 1433.86 561.70, 1432.79 563.75 C 1431.72 565.81, 1431.40 568.08, 1431.28 571.77 C 1431.16 575.46, 1431.45 578.17, 1432.20 582.20 C 1432.96 586.23, 1433.38 588.51, 1435.04 591.93 C 1436.71 595.35, 1437.80 597.10, 1440.55 599.29 C 1443.29 601.48, 1445.21 602.56, 1448.75 602.87 C 1452.29 603.19, 1454.43 602.68, 1458.24 600.88 C 1462.05 599.08, 1463.91 597.58, 1467.80 593.88 C 1471.69 590.19, 1473.61 587.88, 1477.69 582.40 C 1481.76 576.92, 1483.97 573.58, 1488.16 566.51 C 1492.35 559.43, 1494.56 555.18, 1498.62 547.03 C 1502.68 538.89, 1504.72 534.23, 1508.47 525.79 C 1512.22 517.35, 1514.10 512.72, 1517.36 504.84 C 1520.63 496.97, 1522.18 492.86, 1524.77 486.40 C 1527.37 479.93, 1528.79 476.95, 1530.33 472.52 C 1531.86 468.10, 1532.79 466.33, 1532.45 464.29 C 1532.11 462.25, 1530.08 461.42, 1528.62 462.33 C 1527.15 463.25, 1526.20 464.74, 1525.14 468.88 C 1524.08 473.01, 1524.10 476.32, 1523.31 483.00 C 1522.52 489.68, 1522.04 494.16, 1521.19 502.27 C 1520.34 510.38, 1519.77 515.13, 1519.06 523.55 C 1518.34 531.98, 1517.99 536.48, 1517.63 544.38 C 1517.26 552.29, 1517.19 556.28, 1517.22 563.08 C 1517.24 569.88, 1517.43 573.05, 1517.76 578.40 C 1518.09 583.75, 1518.16 586.06, 1518.87 589.84 C 1519.57 593.62, 1519.85 595.24, 1521.28 597.30 C 1522.72 599.36, 1524.01 599.90, 1526.05 600.14 C 1528.09 600.39, 1529.65 599.89, 1531.50 598.53 C 1533.35 597.16, 1534.38 595.76, 1535.30 593.33 C 1536.23 590.90, 1536.09 589.16, 1536.13 586.36 C 1536.16 583.56, 1535.68 581.94, 1535.46 579.32 C 1535.24 576.69, 1535.04 575.28, 1535.01 573.24 C 1534.97 571.19, 1534.72 570.36, 1535.28 569.08 C 1535.83 567.80, 1536.18 567.82, 1537.79 566.85 C 1539.40 565.88, 1540.39 565.35, 1543.34 564.22 C 1546.28 563.09, 1548.23 562.35, 1552.51 561.19 C 1556.79 560.02, 1559.50 559.55, 1564.73 558.39 C 1569.96 557.24, 1573.06 556.70, 1578.67 555.40 C 1584.29 554.11, 1587.39 553.36, 1592.81 551.91 C 1598.22 550.46, 1601.08 549.67, 1605.75 548.15 C 1610.43 546.63, 1612.91 546.18, 1616.17 544.32 C 1619.44 542.45, 1620.94 541.26, 1622.08 538.84 C 1623.21 536.42, 1623.09 534.52, 1621.87 532.22 C 1620.64 529.92, 1619.04 528.08, 1615.96 527.34 C 1612.87 526.59, 1610.38 527.21, 1606.45 528.50 C 1602.52 529.79, 1600.21 531.19, 1596.29 533.80 C 1592.36 536.40, 1590.07 538.01, 1586.84 541.51 C 1583.60 545.01, 1581.79 547.10, 1580.10 551.30 C 1578.42 555.49, 1577.85 558.14, 1578.42 562.48 C 1578.99 566.83, 1580.08 569.26, 1582.96 573.03 C 1585.83 576.79, 1588.11 578.47, 1592.80 581.31 C 1597.50 584.16, 1600.60 585.27, 1606.44 587.26 C 1612.28 589.25, 1615.72 589.91, 1622.00 591.28 C 1628.27 592.64, 1631.72 593.19, 1637.81 594.10 C 1643.89 595.01, 1647.05 595.26, 1652.42 595.83 C 1657.79 596.40, 1660.33 596.54, 1664.67 596.95 C 1669.01 597.36, 1671.09 598.04, 1674.14 597.88 C 1677.18 597.71, 1678.21 596.93, 1679.89 596.11 C 1681.57 595.28, 1682.13 594.72, 1682.53 593.76 C 1682.94 592.79, 1682.62 591.98, 1681.93 591.29 C 1681.23 590.59, 1680.66 590.63, 1679.04 590.29 C 1677.42 589.96, 1676.66 589.55, 1673.83 589.60 C 1670.99 589.65, 1669.05 590.39, 1664.86 590.55 C 1660.66 590.72, 1658.12 590.71, 1652.86 590.41 C 1647.59 590.12, 1644.48 589.92, 1638.53 589.10 C 1632.58 588.28, 1629.16 587.71, 1623.11 586.32 C 1617.06 584.92, 1613.69 584.15, 1608.27 582.13 C 1602.84 580.11, 1600.01 578.83, 1596.00 576.22 C 1591.99 573.60, 1590.35 571.99, 1588.22 569.08 C 1586.09 566.17, 1585.64 564.65, 1585.33 561.66 C 1585.03 558.66, 1585.33 557.08, 1586.69 554.09 C 1588.05 551.09, 1589.38 549.33, 1592.14 546.69 C 1594.90 544.05, 1597.06 542.63, 1600.48 540.88 C 1603.90 539.14, 1606.24 538.73, 1609.25 537.97 C 1612.26 537.21, 1613.76 537.62, 1615.54 537.08 C 1617.31 536.55, 1617.83 535.72, 1618.14 535.29 C 1618.46 534.86, 1618.25 534.46, 1617.11 534.93 C 1615.97 535.40, 1615.15 536.17, 1612.44 537.65 C 1609.74 539.13, 1607.83 540.56, 1603.60 542.32 C 1599.37 544.09, 1596.53 544.97, 1591.30 546.47 C 1586.07 547.98, 1583.00 548.70, 1577.46 549.85 C 1571.91 551.00, 1568.87 551.42, 1563.58 552.25 C 1558.28 553.07, 1555.59 553.27, 1550.99 553.97 C 1546.40 554.68, 1544.26 554.75, 1540.59 555.77 C 1536.92 556.78, 1535.24 557.25, 1532.64 559.06 C 1530.05 560.86, 1529.17 562.29, 1527.61 564.81 C 1526.06 567.32, 1525.67 568.80, 1524.86 571.62 C 1524.05 574.45, 1523.95 576.05, 1523.56 578.96 C 1523.17 581.86, 1522.96 583.53, 1522.91 586.16 C 1522.85 588.78, 1522.82 590.18, 1523.29 592.06 C 1523.77 593.95, 1524.47 594.69, 1525.26 595.57 C 1526.05 596.44, 1526.80 596.70, 1527.24 596.43 C 1527.69 596.16, 1527.88 595.85, 1527.49 594.23 C 1527.11 592.61, 1526.27 591.60, 1525.33 588.33 C 1524.38 585.05, 1523.55 582.93, 1522.77 577.86 C 1522.00 572.80, 1521.69 569.66, 1521.43 562.99 C 1521.17 556.33, 1521.18 552.36, 1521.48 544.55 C 1521.78 536.73, 1522.11 532.25, 1522.94 523.91 C 1523.76 515.57, 1524.37 510.83, 1525.60 502.84 C 1526.83 494.84, 1527.73 490.44, 1529.09 483.94 C 1530.44 477.44, 1531.77 474.48, 1532.37 470.32 C 1532.96 466.16, 1532.97 464.62, 1532.07 463.15 C 1531.18 461.67, 1529.27 461.42, 1527.87 462.94 C 1526.48 464.47, 1526.50 466.39, 1525.11 470.79 C 1523.72 475.20, 1523.12 478.43, 1520.91 484.97 C 1518.70 491.51, 1517.17 495.62, 1514.05 503.50 C 1510.94 511.39, 1509.06 516.01, 1505.33 524.39 C 1501.59 532.77, 1499.53 537.40, 1495.39 545.40 C 1491.26 553.39, 1488.99 557.58, 1484.66 564.36 C 1480.34 571.14, 1477.99 574.36, 1473.79 579.31 C 1469.59 584.26, 1467.41 586.24, 1463.68 589.10 C 1459.95 591.97, 1457.97 592.60, 1455.14 593.63 C 1452.31 594.67, 1451.34 594.46, 1449.54 594.29 C 1447.73 594.12, 1447.32 593.97, 1446.10 592.78 C 1444.88 591.58, 1444.24 590.72, 1443.42 588.34 C 1442.61 585.95, 1442.26 584.18, 1442.01 580.86 C 1441.76 577.53, 1442.31 575.15, 1442.16 571.72 C 1442.01 568.29, 1442.36 566.11, 1441.26 563.69 C 1440.16 561.28, 1438.75 560.10, 1436.65 559.66 C 1434.56 559.21, 1432.85 559.38, 1430.80 561.47 C 1428.74 563.56, 1428.61 566.27, 1426.39 570.11 C 1424.17 573.94, 1422.62 576.77, 1419.69 580.65 C 1416.75 584.53, 1414.90 586.61, 1411.72 589.51 C 1408.55 592.40, 1406.64 593.54, 1403.82 595.13 C 1401.00 596.71, 1399.51 596.66, 1397.64 597.43 C 1395.77 598.20, 1395.31 598.84, 1394.45 598.99 C 1393.58 599.14, 1393.42 599.24, 1393.31 598.17 C 1393.20 597.09, 1393.21 596.24, 1393.90 593.61 C 1394.58 590.98, 1394.85 588.83, 1396.74 585.02 C 1398.63 581.20, 1400.28 578.55, 1403.33 574.53 C 1406.39 570.50, 1408.65 568.09, 1412.01 564.90 C 1415.37 561.70, 1417.75 560.59, 1420.14 558.56 C 1422.53 556.53, 1423.37 555.79, 1423.95 554.77 C 1424.54 553.74, 1423.86 553.02, 1423.07 553.44 C 1422.27 553.86, 1421.46 554.67, 1419.97 556.85 C 1418.49 559.04, 1418.06 561.13, 1415.64 564.37 C 1413.22 567.61, 1411.42 569.67, 1407.87 573.08 C 1404.31 576.49, 1402.12 578.46, 1397.88 581.42 C 1393.63 584.38, 1391.25 585.81, 1386.63 587.89 C 1382.02 589.97, 1379.51 590.86, 1374.81 591.81 C 1370.11 592.77, 1367.62 593.00, 1363.13 592.68 C 1358.63 592.36, 1356.36 591.91, 1352.34 590.21 C 1348.32 588.51, 1346.36 587.38, 1343.02 584.17 C 1339.68 580.96, 1338.01 578.95, 1335.64 574.17 C 1333.26 569.39, 1332.18 566.48, 1331.15 560.26 C 1330.12 554.05, 1329.92 550.39, 1330.47 543.09 C 1331.02 535.79, 1331.77 531.54, 1333.92 523.77 C 1336.06 516.01, 1337.73 511.61, 1341.18 504.27 C 1344.64 496.93, 1346.99 493.02, 1351.20 487.06 C 1355.41 481.10, 1358.05 478.26, 1362.25 474.47 C 1366.45 470.68, 1368.95 469.56, 1372.19 468.12 C 1375.42 466.69, 1376.58 467.04, 1378.40 467.29 C 1380.23 467.53, 1380.39 467.59, 1381.32 469.35 C 1382.25 471.11, 1383.11 472.45, 1383.04 476.09 C 1382.97 479.73, 1382.75 482.39, 1380.95 487.55 C 1379.15 492.71, 1377.63 495.84, 1374.04 501.87 C 1370.45 507.90, 1368.06 511.32, 1363.02 517.69 C 1357.97 524.05, 1354.93 527.46, 1348.79 533.68 C 1342.66 539.91, 1339.14 543.05, 1332.33 548.81 C 1325.53 554.56, 1321.80 557.37, 1314.76 562.46 C 1307.72 567.55, 1303.96 569.93, 1297.13 574.27 C 1290.31 578.62, 1286.82 580.59, 1280.64 584.17 C 1274.47 587.75, 1271.41 589.33, 1266.24 592.17 C 1261.07 595.01, 1258.57 596.01, 1254.79 598.39 C 1251.02 600.77, 1249.00 601.52, 1247.35 604.07 C 1245.71 606.63, 1245.83 608.73, 1246.55 611.17 C 1247.27 613.60, 1248.42 615.30, 1250.96 616.25 C 1253.51 617.20, 1255.56 616.98, 1259.28 615.91 C 1262.99 614.85, 1265.20 613.44, 1269.52 610.91 C 1273.83 608.38, 1276.45 606.78, 1280.86 603.26 C 1285.27 599.74, 1287.75 597.59, 1291.57 593.31 C 1295.38 589.03, 1297.35 586.56, 1299.94 581.87 C 1302.52 577.17, 1303.72 574.54, 1304.50 569.83 C 1305.27 565.13, 1305.28 562.39, 1303.82 558.36 C 1302.36 554.33, 1300.68 552.12, 1297.20 549.69 C 1293.72 547.25, 1291.12 546.45, 1286.44 546.18 C 1281.77 545.92, 1279.02 546.47, 1273.83 548.38 C 1268.64 550.29, 1265.73 551.78, 1260.49 555.74 C 1255.24 559.69, 1252.56 562.34, 1247.61 568.13 C 1242.65 573.92, 1240.15 577.43, 1235.71 584.69 C 1231.27 591.95, 1229.10 596.08, 1225.41 604.43 C 1221.73 612.78, 1220.00 617.54, 1217.28 626.44 C 1214.56 635.35, 1213.49 640.21, 1211.82 648.96 C 1210.16 657.71, 1209.70 662.44, 1208.94 670.18 C 1208.19 677.92, 1208.05 681.90, 1208.04 687.66 C 1208.04 693.42, 1207.53 696.10, 1208.92 698.97 C 1210.31 701.84, 1212.88 702.41, 1214.98 702.01 C 1217.09 701.60, 1218.26 700.36, 1219.45 696.94 C 1220.64 693.52, 1220.22 690.77, 1220.92 684.92 C 1221.62 679.06, 1222.04 675.42, 1222.95 667.67 C 1223.86 659.91, 1224.45 655.11, 1225.47 646.13 C 1226.49 637.15, 1226.97 632.04, 1228.04 622.76 C 1229.12 613.48, 1229.76 608.57, 1230.84 599.71 C 1231.91 590.85, 1232.43 586.19, 1233.43 578.47 C 1234.42 570.75, 1235.07 566.90, 1235.82 561.09 C 1236.57 555.28, 1237.70 552.91, 1237.16 549.42 C 1236.62 545.93, 1235.26 544.50, 1233.13 543.64 C 1231.00 542.78, 1228.73 543.12, 1226.50 545.11 C 1224.28 547.10, 1224.04 549.75, 1221.99 553.58 C 1219.93 557.41, 1218.82 560.00, 1216.21 564.25 C 1213.59 568.50, 1211.96 570.98, 1208.92 574.81 C 1205.87 578.65, 1204.11 580.62, 1200.99 583.43 C 1197.88 586.25, 1196.12 587.39, 1193.36 588.87 C 1190.61 590.35, 1189.26 590.35, 1187.22 590.84 C 1185.18 591.33, 1184.56 591.62, 1183.17 591.33 C 1181.78 591.04, 1181.28 590.67, 1180.26 589.39 C 1179.24 588.12, 1178.86 587.18, 1178.08 584.96 C 1177.30 582.74, 1176.87 581.30, 1176.36 578.29 C 1175.85 575.28, 1176.04 573.30, 1175.53 569.92 C 1175.03 566.54, 1175.22 564.30, 1173.83 561.40 C 1172.45 558.49, 1171.15 557.07, 1168.61 555.41 C 1166.07 553.75, 1164.30 552.78, 1161.12 553.09 C 1157.93 553.39, 1156.09 554.75, 1152.67 556.95 C 1149.25 559.15, 1147.49 561.27, 1144.00 564.07 C 1140.51 566.87, 1138.55 568.58, 1135.22 570.94 C 1131.88 573.30, 1129.93 574.32, 1127.33 575.87 C 1124.73 577.41, 1123.69 577.88, 1122.23 578.67 C 1120.78 579.45, 1120.62 579.91, 1120.06 579.80 C 1119.50 579.69, 1119.54 579.45, 1119.44 578.10 C 1119.35 576.76, 1119.65 575.56, 1119.56 573.07 C 1119.48 570.58, 1119.22 568.81, 1119.01 565.64 C 1118.81 562.48, 1119.40 560.35, 1118.53 557.25 C 1117.67 554.15, 1116.73 552.25, 1114.67 550.14 C 1112.60 548.03, 1111.05 546.94, 1108.20 546.70 C 1105.35 546.46, 1103.49 546.97, 1100.41 548.94 C 1097.33 550.91, 1096.05 553.13, 1092.78 556.54 C 1089.51 559.96, 1087.60 562.32, 1084.06 566.03 C 1080.51 569.73, 1078.44 571.98, 1075.06 575.06 C 1071.67 578.14, 1069.75 579.52, 1067.14 581.43 C 1064.53 583.35, 1063.47 583.74, 1062.03 584.63 C 1060.59 585.53, 1060.50 586.06, 1059.94 585.93 C 1059.38 585.80, 1059.49 585.52, 1059.23 583.99 C 1058.96 582.46, 1058.78 581.19, 1058.62 578.27 C 1058.46 575.35, 1058.23 573.25, 1058.43 569.39 C 1058.63 565.53, 1059.23 562.86, 1059.61 558.95 C 1060.00 555.04, 1061.05 552.81, 1060.36 549.83 C 1059.67 546.85, 1058.19 545.13, 1056.15 544.04 C 1054.11 542.95, 1052.28 542.81, 1050.17 544.37 C 1048.06 545.92, 1047.70 548.21, 1045.59 551.81 C 1043.49 555.42, 1042.50 558.11, 1039.65 562.40 C 1036.80 566.69, 1035.00 569.27, 1031.36 573.27 C 1027.72 577.27, 1025.63 579.32, 1021.46 582.42 C 1017.30 585.51, 1014.96 586.84, 1010.52 588.74 C 1006.09 590.64, 1003.68 591.31, 999.30 591.91 C 994.92 592.51, 992.64 592.45, 988.62 591.75 C 984.60 591.06, 982.53 590.35, 979.20 588.44 C 975.87 586.54, 974.25 585.30, 971.98 582.24 C 969.71 579.17, 968.71 577.23, 967.85 573.12 C 966.99 569.01, 966.86 566.43, 967.68 561.69 C 968.50 556.95, 969.51 554.06, 971.94 549.42 C 974.37 544.77, 976.31 542.16, 979.82 538.46 C 983.33 534.76, 985.76 532.97, 989.49 530.91 C 993.22 528.84, 995.58 528.67, 998.46 528.14 C 1001.35 527.60, 1002.35 528.13, 1003.91 528.24 C 1005.46 528.35, 1005.89 528.18, 1006.24 528.69 C 1006.60 529.20, 1006.60 529.46, 1005.69 530.80 C 1004.78 532.14, 1004.23 533.30, 1001.68 535.39 C 999.13 537.49, 997.24 539.01, 992.96 541.28 C 988.68 543.54, 985.89 544.76, 980.26 546.72 C 974.64 548.67, 971.27 549.51, 964.83 551.05 C 958.39 552.59, 954.76 553.30, 948.06 554.41 C 941.35 555.52, 937.75 556.04, 931.31 556.59 C 924.87 557.13, 921.51 557.11, 915.87 557.14 C 910.22 557.17, 907.36 556.90, 903.08 556.74 C 898.79 556.58, 897.07 555.93, 894.45 556.33 C 891.82 556.73, 890.88 557.47, 889.97 558.75 C 889.06 560.04, 888.97 561.43, 889.87 562.76"
    style="stroke: black; fill: black;" />
</svg>